<svg width="600" height="1034" viewBox="0 0 600 1034" fill="none" xmlns="http://www.w3.org/2000/svg">
<path d="M513.82 139.55L515.87 198.93L480.15 200.17L477.58 125.96L457.2 101.66L465.03 93.21L473.73 103.85L461.18 52.1L471.15 50.43L484.21 89.31L481.67 43.62L496.34 43.68L497.71 88.94L503.9 43.12L517.02 41.95L510.27 92.9L526.93 54.95L537.33 64.79L513.31 122.74L513.24 122.75L513.82 139.55Z" fill="#C0512B"/>
<path d="M457.11 101.38L465.72 94.68L473.09 103.55L462.91 52.23L471.16 52.34L484.22 88.92L482.77 43.4L496.27 43.49L497.55 89.35L505.65 43.32L515.66 44.49L510.12 92.68L528.05 57.13L537.2 64.69L511.64 122.05L512.62 137.83L477.71 136.85L478.79 124.21L457.11 101.38Z" stroke="#000022" stroke-width="5" stroke-linecap="round" stroke-linejoin="round"/>
<path d="M164.63 1011.37L23.55 929.37L49.94 880.47L143.75 935C169.85 950.17 179.2 984.36 164.63 1011.37Z" fill="#000022"/>
<path d="M60.23 931.16C44.37 921.94 38.69 901.16 47.54 884.75L89.77 806.52C98.62 790.11 118.66 784.28 134.53 793.52C150.39 802.74 156.07 823.52 147.21 839.93L105 918.14C96.13 934.55 76.09 940.38 60.23 931.16Z" fill="#C0512B" stroke="#000022" stroke-width="5" stroke-miterlimit="10"/>
<path d="M388.62 375.23C344.19 358.17 294.37 375.69 269.27 417.23L28.91 814.78L191.78 874.63L366.32 495.22L388.62 375.23Z" fill="#FCDBAA"/>
<path d="M229.81 464.34L35.66 814.07L196.73 875.43" stroke="#000022" stroke-width="5" stroke-miterlimit="10" stroke-linecap="round"/>
<path d="M55.23 787.31L199.07 842.71" stroke="#000022" stroke-width="5" stroke-miterlimit="10" stroke-linecap="round"/>
<path d="M529.64 138.39L521 287.92C520.51 317.08 486.19 324.77 455.37 325.83C434.57 328.16 399.65 327.34 343 314.91L333 251.91L462 261.13L461.81 137.26L529.64 138.39Z" fill="#FBD206"/>
<path d="M342.26 253.4L466.75 263.74L470.58 140.81" stroke="#000022" stroke-width="5" stroke-miterlimit="10" stroke-linecap="round"/>
<path d="M374.51 322.42C374.51 322.42 504.13 346.25 518 284.73C531.87 223.21 522.42 137.94 522.42 137.94" stroke="#000022" stroke-width="5" stroke-miterlimit="10" stroke-linecap="round"/>
<path d="M408.74 152.2C408.731 155.502 407.466 158.676 405.203 161.079C402.939 163.483 399.845 164.934 396.55 165.14L384.24 165.89L384.39 168.33C385.127 180.465 381.426 192.454 373.979 202.063C366.532 211.672 355.845 218.246 343.91 220.56L339.27 233.29L302.2 226.87C302.2 226.87 304.62 220.08 306.87 213.94C300.082 209.717 294.406 203.928 290.317 197.059C286.228 190.19 283.846 182.44 283.37 174.46L281.62 145.62C281.222 139.05 282.122 132.467 284.269 126.245C286.415 120.023 289.766 114.286 294.131 109.359C298.495 104.433 303.788 100.415 309.705 97.5339C315.623 94.6532 322.05 92.9664 328.62 92.57L329.62 92.51C342.881 91.7144 355.915 96.2192 365.854 105.033C375.793 113.848 381.824 126.249 382.62 139.51V140.01L394.93 139.26C398.364 139.058 401.739 140.225 404.315 142.506C406.89 144.787 408.456 147.996 408.67 151.43C408.74 151.67 408.74 151.94 408.74 152.2Z" fill="#C0512B"/>
<path d="M345.477 121.364L345.467 121.365C335.991 121.94 328.775 130.088 329.349 139.564L329.675 144.934C330.25 154.41 338.398 161.627 347.874 161.052L347.884 161.052C357.36 160.477 364.577 152.329 364.002 142.853L363.676 137.482C363.102 128.006 354.954 120.79 345.477 121.364Z" fill="#F8FAFC"/>
<path d="M358.009 151.242C361.945 151.003 364.855 146.171 364.508 140.449C364.161 134.727 360.689 130.281 356.753 130.52C352.817 130.759 349.907 135.591 350.254 141.313C350.601 147.035 354.073 151.481 358.009 151.242Z" fill="#010024"/>
<path d="M368.45 112.59C364.287 112.853 360.134 111.956 356.45 110C355.231 111.726 353.589 113.11 351.682 114.019C349.775 114.928 347.666 115.332 345.557 115.191C343.449 115.051 341.412 114.371 339.642 113.217C337.872 112.062 336.429 110.473 335.45 108.6L335.5 108.48L335.33 108.35C335.364 108.436 335.404 108.52 335.45 108.6C334.497 111.073 332.976 113.287 331.009 115.064C329.043 116.841 326.686 118.131 324.13 118.83C323.449 125.204 320.932 131.242 316.884 136.213C312.837 141.183 307.433 144.872 301.33 146.83C301.105 149.545 300.412 152.201 299.28 154.68C301.667 157.634 303.251 161.154 303.878 164.9C304.505 168.646 304.154 172.49 302.859 176.061C301.563 179.631 299.368 182.806 296.485 185.278C293.602 187.751 290.129 189.437 286.403 190.172C282.677 190.908 278.824 190.669 275.218 189.478C271.611 188.288 268.373 186.186 265.818 183.376C263.263 180.566 261.476 177.144 260.632 173.441C259.788 169.738 259.915 165.88 261 162.24C256.966 158.453 254.364 153.388 253.635 147.903C252.906 142.418 254.095 136.849 257 132.14C246.627 133.925 235.959 132.64 226.307 128.443C216.654 124.246 208.439 117.32 202.671 108.516C196.903 99.7117 193.833 89.4139 193.84 78.8886C193.847 68.3634 196.929 58.0695 202.708 49.2727C208.487 40.4759 216.711 33.5598 226.369 29.3748C236.026 25.1897 246.696 23.9183 257.067 25.7166C267.437 27.515 277.056 32.3049 284.741 39.4973C292.425 46.6897 297.84 55.971 300.32 66.2C302.387 65.1037 304.665 64.4627 307 64.32C309.39 64.1722 311.782 64.5576 314.005 65.4483C316.227 66.339 318.224 67.7127 319.85 69.47C322.59 67.686 325.714 66.5748 328.965 66.2273C332.217 65.8797 335.504 66.3055 338.56 67.47C338.884 64.4443 340.315 61.6452 342.578 59.6112C344.842 57.5772 347.777 56.452 350.82 56.452C353.863 56.452 356.798 57.5772 359.062 59.6112C361.325 61.6452 362.756 64.4443 363.08 67.47C363.936 67.3157 364.801 67.2122 365.67 67.16C371.62 66.9012 377.434 68.9901 381.858 72.9768C386.283 76.9634 388.964 82.5286 389.325 88.4734C389.686 94.4181 387.697 100.267 383.786 104.759C379.876 109.251 374.358 112.028 368.42 112.49L368.45 112.59Z" fill="#010024"/>
<path d="M306.38 160.09C316.056 160.09 323.9 152.246 323.9 142.57C323.9 132.894 316.056 125.05 306.38 125.05C296.704 125.05 288.86 132.894 288.86 142.57C288.86 152.246 296.704 160.09 306.38 160.09Z" fill="#C0512B"/>
<path d="M369.92 176.18C370.068 178.604 369.736 181.034 368.945 183.33C368.153 185.626 366.917 187.744 365.306 189.562C363.696 191.381 361.743 192.864 359.56 193.927C357.376 194.991 355.004 195.613 352.58 195.76C350.155 195.909 347.725 195.578 345.428 194.787C343.132 193.996 341.014 192.76 339.195 191.149C337.376 189.539 335.893 187.586 334.83 185.401C333.767 183.217 333.145 180.845 333 178.42" stroke="#010024" stroke-width="5" stroke-miterlimit="10" stroke-linecap="round"/>
<path d="M334.57 242.39L344.57 219.59C344.57 219.59 383.67 215.89 384.57 165.59L398.13 164.48C401.509 164.209 404.651 162.634 406.89 160.088C409.13 157.543 410.291 154.226 410.13 150.84C410.046 149.09 409.611 147.375 408.85 145.796C408.089 144.218 407.019 142.809 405.702 141.653C404.386 140.497 402.85 139.618 401.187 139.067C399.523 138.517 397.766 138.307 396.02 138.45L383.02 139.52C383.02 139.52 381.74 112.94 362.39 104.74" stroke="#000022" stroke-width="5" stroke-miterlimit="10" stroke-linecap="round"/>
<path d="M302.66 224.29L307.33 214.18C307.33 214.18 291.47 205.39 284.71 180.53" stroke="#010024" stroke-width="5" stroke-miterlimit="10" stroke-linecap="round"/>
<path d="M320.362 960.223L434.257 950.038C449.478 948.677 464.617 953.418 476.342 963.218C488.067 973.019 495.419 987.076 496.78 1002.3L325.464 1017.62L320.332 960.226L320.362 960.223Z" fill="#000022"/>
<path d="M344.29 835.483L344.28 835.484C325.021 837.206 310.805 854.215 312.527 873.473L320.74 965.307C322.462 984.565 339.47 998.782 358.729 997.059L358.739 997.058C377.997 995.336 392.213 978.328 390.491 959.069L382.279 867.236C380.557 847.977 363.549 833.761 344.29 835.483Z" fill="#C0512B" stroke="#000022" stroke-width="5" stroke-miterlimit="10"/>
<path d="M325.28 327.51C301.563 333.463 280.618 347.397 265.963 366.971C251.307 386.545 243.835 410.567 244.8 435L263.88 917.15L441.48 869.91L375.14 442.78L325.28 327.51Z" fill="#FCDBAA"/>
<path d="M237.43 498.75L269.39 912.46L446.29 867.59" stroke="#000022" stroke-width="5" stroke-miterlimit="10" stroke-linecap="round"/>
<path d="M271.09 877.97L429.41 838.41" stroke="#000022" stroke-width="5" stroke-miterlimit="10" stroke-linecap="round"/>
<path d="M430.26 498.5L191.46 479.62L274.92 222.07L344.16 233.95L430.26 498.5Z" fill="#FBD206"/>
<path d="M430.5 499.28L215.27 479.34L281.6 222.77L347.95 235.45" stroke="#000022" stroke-width="5" stroke-miterlimit="10" stroke-linecap="round"/>
<path d="M444.5 468.76L485.99 488.06L479.02 500.97L438.46 480.84L475.95 507.9L470.8 520.03L429.04 490.06L454.66 522.64L441.08 527.17L401.29 478.67L401.32 478.6L386.24 471.2L332.89 445.01L348.64 412.93L415.29 445.64L446.34 439.12L450.09 450.01L436.61 452.67L488.17 465.99L484.94 475.57L444.5 468.76Z" fill="#C0512B"/>
<path d="M412.26 423.32L378.26 483.6L268 421.41C261.223 417.589 255.265 412.471 250.466 406.348C245.667 400.225 242.121 393.216 240.031 385.722C237.94 378.228 237.347 370.396 238.283 362.673C239.22 354.95 241.669 347.487 245.49 340.71L250.38 332.03L251.59 332.71L294 238.43L363.78 286.94L308.41 364.74L412.26 423.32Z" fill="#FBD206"/>
<path d="M365.97 268.28L297.56 372.81L403.82 434.75" stroke="#000022" stroke-width="5" stroke-miterlimit="10" stroke-linecap="round"/>
<path d="M283.63 275.58C283.63 275.58 207.22 366.34 254.71 407.82C302.2 449.3 381.65 481.66 381.65 481.66" stroke="#000022" stroke-width="5" stroke-miterlimit="10" stroke-linecap="round"/>
<path d="M446.62 439.18L448.47 449.93L437.18 452.25L487.24 467.46L483.25 474.68L444.84 468.96L485.67 489.13L479.23 501L438.17 480.51L474.95 509.35L469.2 517.62L429.31 490.02L452.21 522.6L441.23 527.1L402.69 477.52L388.31 470.95L405.63 440.62L416.27 447.53L446.62 439.18Z" stroke="#000022" stroke-width="5" stroke-linecap="round" stroke-linejoin="round"/>
<path d="M379.72 495.59L440.14 844.27" stroke="#000022" stroke-width="5" stroke-miterlimit="10" stroke-linecap="round"/>
<path d="M542.94 75.3C556.359 78.1524 569.579 81.8668 582.52 86.42" stroke="#000022" stroke-width="5" stroke-miterlimit="10" stroke-linecap="round"/>
<path d="M421.52 79.42C421.52 79.42 435.72 73.42 460.88 70.64" stroke="#000022" stroke-width="5" stroke-miterlimit="10" stroke-linecap="round"/>
<path d="M529.31 100.75C545.131 103.269 560.627 107.518 575.52 113.42" stroke="#000022" stroke-width="5" stroke-miterlimit="10" stroke-linecap="round"/>
<path d="M428.52 109.42C428.52 109.42 450.09 100.27 483.71 98.42" stroke="#000022" stroke-width="5" stroke-miterlimit="10" stroke-linecap="round"/>
</svg>
