<svg width="1614" height="1674" viewBox="0 0 1614 1674" fill="none" xmlns="http://www.w3.org/2000/svg">
<path d="M1039.87 632.64L1038.27 632.73V634.55L1014.07 635.22L862.58 639.43H862.16C858.248 639.483 854.475 637.98 851.672 635.251C848.868 632.523 847.263 628.792 847.21 624.88C847.157 620.968 848.66 617.195 851.389 614.392C854.117 611.588 857.848 609.983 861.76 609.93L938.38 607.81C937.92 607.2 937.48 606.59 937.04 605.96L849.8 608.38H849.39C845.478 608.434 841.705 606.933 838.9 604.205C836.096 601.477 834.489 597.747 834.435 593.835C834.381 589.923 835.883 586.15 838.61 583.345C841.338 580.541 845.068 578.934 848.98 578.88L925.66 576.75C925.413 574.95 925.233 573.13 925.12 571.29C925.12 570.49 925.04 569.7 925.02 568.91L844.37 571.15H844C840.088 571.204 836.315 569.703 833.51 566.975C830.706 564.247 829.099 560.517 829.045 556.605C828.991 552.693 830.493 548.92 833.22 546.115C835.948 543.311 839.678 541.704 843.59 541.65L931.11 539.22C931.72 537.89 932.36 536.58 933.05 535.3L845.53 537.73H845.11C841.198 537.783 837.425 536.28 834.622 533.551C831.818 530.823 830.213 527.092 830.16 523.18C830.107 519.268 831.61 515.495 834.339 512.692C837.067 509.888 840.798 508.283 844.71 508.23L966.22 504.86H967.84L967.32 504.45L926.32 471.23C925.073 470.221 924.038 468.975 923.272 467.565C922.507 466.155 922.027 464.608 921.86 463.013C921.693 461.418 921.842 459.805 922.298 458.267C922.755 456.729 923.51 455.296 924.52 454.05L927.7 450.11C929.742 447.594 932.699 445.991 935.923 445.653C939.146 445.316 942.371 446.271 944.89 448.31L1006.89 498.5L1036.25 496.78L1037.25 496.72L1078.05 494.33L1086 629.94L1039.87 632.64Z" fill="#D6802B"/>
<path d="M1479.19 1613.99L1445.45 1573.58L1447.93 1634.11L1400.98 1629.15L1311.93 1619.73L1261.38 1614.39L1375.15 1580.96L1374.95 1535.91L1374.85 1511.11L1464.54 1496.67L1473.29 1513.42L1493.87 1552.84L1518.02 1599.09L1479.19 1613.99Z" fill="#D6802B"/>
<path d="M1493.87 1552.84L1453.15 1568.99L1444.95 1572.73L1400.98 1629.15L1311.94 1619.73L1420.93 1574.15L1375.15 1580.96L1373.58 1536.23L1374.95 1535.91L1473.29 1513.42L1493.87 1552.84Z" fill="#A85D23"/>
<path d="M581.68 661.32L580.23 660.6L580.86 660.44C581.15 660.73 581.42 661 581.68 661.32Z" fill="#D6802B"/>
<path d="M697.39 734.83C695.661 738.339 692.608 741.017 688.905 742.275C685.201 743.533 681.149 743.269 677.64 741.54L599.11 702.81C599.2 704.26 599.25 705.72 599.24 707.18L677.77 745.91C681.136 747.716 683.67 750.759 684.839 754.396C686.007 758.033 685.719 761.982 684.034 765.411C682.349 768.84 679.4 771.481 675.807 772.779C672.214 774.077 668.257 773.931 664.77 772.37L592.4 736.68C592.06 737.393 591.7 738.103 591.32 738.81C590.45 740.44 589.53 742.01 588.55 743.54L657.36 777.47C660.726 779.276 663.26 782.319 664.429 785.956C665.597 789.593 665.309 793.542 663.624 796.971C661.939 800.4 658.99 803.041 655.397 804.339C651.804 805.637 647.847 805.491 644.36 803.93L566 765.33C565.35 765.71 564.69 766.09 564 766.45L632.73 800.35C636.096 802.156 638.63 805.199 639.799 808.836C640.967 812.473 640.679 816.422 638.994 819.851C637.309 823.28 634.36 825.921 630.767 827.219C627.174 828.517 623.217 828.371 619.73 826.81L462.06 749.07L462.86 747.44L420.67 725L484.47 605.07L547.47 638.56L624.7 618.79C627.84 617.989 631.17 618.467 633.958 620.118C636.746 621.77 638.764 624.461 639.57 627.6L640.82 632.5C641.624 635.639 641.149 638.969 639.499 641.757C637.849 644.546 635.159 646.565 632.02 647.37L580.9 660.45L580.27 660.61L581.72 661.33L690.72 715.09C694.221 716.825 696.89 719.878 698.141 723.579C699.391 727.281 699.121 731.328 697.39 734.83Z" fill="#D6802B"/>
<path d="M347.49 383.31L322.97 504.62L524.8 615.78L456.53 759.82L142.18 580.61L187.01 341.14L347.49 383.31Z" fill="#C84348"/>
<path d="M520.89 624.44L484.27 759.88L460.3 748.92L520.89 624.44Z" fill="#A85D23"/>
<path d="M600.52 679.87C600.52 679.87 612 740 552.78 780.28" stroke="black" stroke-width="2.31" stroke-miterlimit="10"/>
<path d="M508.34 657.65C508.34 657.65 543.73 693.86 580.77 673.29" stroke="black" stroke-width="2.31" stroke-miterlimit="10"/>
<path d="M478.56 711.85L475.63 718.18L456.46 759.88L142.18 580.61L182.91 359.75L238.28 594.01L368.68 657.96L365.61 604.3L415.33 605.8L430.61 688.33L478.56 711.85Z" fill="#962B35"/>
<path d="M666.71 487.9H665.09L665.6 487.48C666 487.58 666.34 487.74 666.71 487.9Z" fill="#D6802B"/>
<path d="M707.76 554.32C707.65 556.16 707.47 557.98 707.22 559.77L783.9 561.9C785.837 561.926 787.75 562.334 789.529 563.099C791.309 563.865 792.92 564.973 794.271 566.362C795.622 567.75 796.687 569.391 797.404 571.19C798.121 572.99 798.476 574.913 798.45 576.85C798.424 578.787 798.016 580.7 797.251 582.479C796.485 584.259 795.377 585.87 793.988 587.221C792.6 588.572 790.959 589.637 789.16 590.354C787.36 591.071 785.437 591.426 783.5 591.4H783.09L695.84 589C695.41 589.63 694.96 590.24 694.51 590.85L771.12 593C774.972 593.137 778.618 594.777 781.276 597.569C783.934 600.36 785.394 604.081 785.343 607.936C785.292 611.79 783.734 615.471 781.003 618.191C778.272 620.912 774.584 622.454 770.73 622.49H770.31L594.61 617.62L588.26 617.37L547 612.94L554.94 477.33L626.13 481.5L688 431.3C690.52 429.262 693.746 428.309 696.97 428.648C700.193 428.987 703.149 430.592 705.19 433.11L708.4 437C709.41 438.246 710.165 439.679 710.622 441.217C711.078 442.755 711.227 444.367 711.06 445.963C710.893 447.558 710.413 449.105 709.648 450.515C708.882 451.925 707.847 453.17 706.6 454.18L665.6 487.4L665.09 487.82H666.71L788.21 491.19C792.122 491.243 795.853 492.848 798.581 495.652C801.31 498.455 802.813 502.228 802.76 506.14C802.707 510.052 801.102 513.783 798.298 516.511C795.495 519.24 791.722 520.743 787.81 520.69H787.39L699.86 518.26C700.55 519.54 701.2 520.85 701.81 522.18L789.33 524.61C791.267 524.636 793.18 525.044 794.959 525.809C796.739 526.575 798.35 527.683 799.701 529.072C801.052 530.46 802.117 532.101 802.834 533.9C803.551 535.7 803.906 537.623 803.88 539.56C803.854 541.497 803.446 543.41 802.681 545.189C801.915 546.969 800.807 548.58 799.418 549.931C798.03 551.282 796.389 552.347 794.59 553.064C792.79 553.781 790.867 554.136 788.93 554.11H788.51L707.86 551.87C707.84 552.72 707.81 553.52 707.76 554.32Z" fill="#D6802B"/>
<path d="M186.43 1624.62L188.9 1564.1L155.16 1604.51L116.34 1589.61L139.28 1545.7L150.28 1524.62L169.82 1487.18L259.5 1501.62L259.2 1571.48L372.98 1604.9L186.43 1624.62Z" fill="#D6802B"/>
<path d="M79.87 673.8L112.47 1524.32L277.77 1526.68L272.65 711.02L79.87 673.8Z" fill="#030303"/>
<path d="M323.07 1610.4L233.44 1619.77L187.04 1556.94L139.28 1545.7L150.28 1524.62L260.57 1526.52L257.26 1573.47L203.74 1560.87L323.07 1610.4Z" fill="#A85D23"/>
<path d="M183.5 1552.14L214.69 1500.22L165.72 1519.5L138.79 1487.8L181.96 1458.94L208.25 1441.37L234.84 1423.58L306.63 1479.27L294.56 1501.12L272.85 1540.41L356.64 1624.32L183.5 1552.14Z" fill="#D6802B"/>
<path d="M295.69 1501.91L272.85 1540.41L181.96 1458.94L208.25 1441.37L294.56 1501.12L295.69 1501.91Z" fill="#A85D23"/>
<path d="M91.62 677.24L361.56 1110.44L142 1398.44L300.66 1520C300.66 1520 564 1146.37 569 1154.6C574 1162.83 371.16 718.84 371.16 718.84L91.62 677.24Z" fill="#030303"/>
<path d="M202.34 1446.19L141.27 1397.55L274.6 1226.36" stroke="white" stroke-width="2.31" stroke-miterlimit="10"/>
<path d="M134.69 750.65L355.26 1099.62" stroke="white" stroke-width="2.31" stroke-miterlimit="10"/>
<path d="M967.85 504.85H966.23C966.59 504.68 966.96 504.53 967.33 504.39L967.85 504.85Z" fill="#D6802B"/>
<path d="M1297.9 345.17L1266.71 470.43L1036.9 487.24L1038.85 646.63L1399.31 614.92L1458.48 378.59L1297.9 345.17Z" fill="#395DA3"/>
<path d="M1040.34 634.48L1038.32 634.55L1014.12 635.22L1036.21 496.77L1037.23 496.71L1039.87 632.64L1040.34 634.48Z" fill="#A85D23"/>
<path d="M1294.34 363L1272.55 587.88L1268.82 626.37L1267.65 626.49L1214.28 631.19L1038.85 646.62L1038.92 591.53L1040.92 593.92L1235.68 588.84C1254.13 546.45 1279.72 472.19 1294.34 363Z" fill="#2B4271"/>
<path d="M265.7 276.98C291.801 276.98 312.96 255.821 312.96 229.72C312.96 203.619 291.801 182.46 265.7 182.46C239.599 182.46 218.44 203.619 218.44 229.72C218.44 255.821 239.599 276.98 265.7 276.98Z" fill="#D6802B"/>
<path d="M211.98 244.18C220.833 244.18 228.01 237.003 228.01 228.15C228.01 219.297 220.833 212.12 211.98 212.12C203.127 212.12 195.95 219.297 195.95 228.15C195.95 237.003 203.127 244.18 211.98 244.18Z" fill="#D6802B"/>
<path d="M374.73 723.12L366.14 721.81L77.5 677.63L145.66 436.22L185.06 296.64L185.72 294.32L326.75 299.88L335.74 300.23L374.73 723.12Z" fill="#C84348"/>
<path d="M596.01 470.24L594.08 629.63L233.62 597.93L174.44 361.59L336.96 331.63L366.06 452.83L366.21 453.44H366.27L596.01 470.24Z" fill="#C84348"/>
<path d="M326.76 299.88L204.13 304.17C204.13 304.17 192.55 300.01 185.07 296.64L185.72 294.32L326.76 299.88Z" fill="#962B35"/>
<path d="M366.27 453.44L343.17 494.59L336.82 479.14L366.06 452.83L366.21 453.44H366.27Z" fill="#962B35"/>
<path d="M592.97 617.5L595.38 479.7V479.55L595.41 479.7L618.88 618.23L592.97 617.5Z" fill="#A85D23"/>
<path d="M592.01 576.93L326.55 570.01L178.48 380.22L233.62 597.92L594.08 629.63L593.69 577.03L592.01 576.93Z" fill="#962B35"/>
<path d="M375.11 723.35L77.51 677.63L145.66 436.22C150.52 464.39 217 674.56 375.11 723.35Z" fill="#962B35"/>
<path d="M1367.22 293.98C1393.32 293.98 1414.48 272.821 1414.48 246.72C1414.48 220.619 1393.32 199.46 1367.22 199.46C1341.12 199.46 1319.96 220.619 1319.96 246.72C1319.96 272.821 1341.12 293.98 1367.22 293.98Z" fill="#D6802B"/>
<path d="M1433.15 249C1433.15 252.127 1432.24 255.186 1430.53 257.8C1428.81 260.415 1426.37 262.469 1423.5 263.71C1421.49 264.592 1419.31 265.044 1417.11 265.04C1416.88 265.04 1416.65 265.04 1416.43 265.04C1412.41 264.946 1408.58 263.343 1405.69 260.552C1402.8 257.76 1401.07 253.984 1400.83 249.972C1400.6 245.961 1401.88 242.009 1404.43 238.902C1406.98 235.794 1410.6 233.759 1414.58 233.2C1415.42 233.059 1416.26 232.989 1417.11 232.99C1417.66 232.99 1418.2 232.99 1418.73 233.07C1422.68 233.462 1426.35 235.31 1429.01 238.254C1431.68 241.198 1433.15 245.029 1433.15 249Z" fill="#D6802B"/>
<path d="M1484.07 441.91L1448 314L1447.26 311.36L1303.42 317L1297.19 317.25L1258.72 734.67L1258.21 740.15C1272.82 737.141 1287.07 732.575 1300.71 726.53C1426.78 670.72 1475.6 502.47 1484.37 460.61C1484.17 454.37 1484.07 448.137 1484.07 441.91Z" fill="#395DA3"/>
<path d="M1448 314C1441.89 317.34 1432.11 321.51 1432.11 321.51L1303.42 317L1447.21 311.35L1448 314Z" fill="#2B4271"/>
<path d="M1555.42 694.63L1554.66 694.75L1521.9 1533.81L1356.59 1536.18L1356.72 1515.78L1358.49 1233.94L1360.09 978.94L1361.69 724.29L1258.21 740.13C1272.82 737.121 1287.07 732.555 1300.71 726.51C1442.98 663.51 1486.87 457.37 1485.86 451.22L1555.42 694.63Z" fill="#030303"/>
<path d="M336.9 263.18C336.907 268.72 335.133 274.115 331.84 278.57C333.773 284.663 333.388 291.255 330.758 297.081C328.128 302.906 323.439 307.556 317.59 310.136C311.742 312.716 305.147 313.045 299.071 311.06C292.995 309.075 287.867 304.915 284.67 299.38V299.32C283.902 297.989 283.259 296.59 282.75 295.14C282.53 294.55 282.34 293.94 282.17 293.33C281.174 293.443 280.172 293.499 279.17 293.5C275.13 293.501 271.145 292.557 267.535 290.742C263.925 288.928 260.79 286.293 258.38 283.05C252.987 285.44 246.94 285.916 241.24 284.4C240.489 284.208 239.748 283.977 239.02 283.71C234.709 282.132 230.893 279.441 227.96 275.91C227.69 275.59 227.44 275.27 227.19 274.91C226.94 274.55 226.8 274.38 226.61 274.11L226.4 273.81C225.954 273.164 225.54 272.497 225.16 271.81C225.04 271.59 224.92 271.37 224.81 271.14C224.132 269.833 223.573 268.467 223.14 267.06C223.01 266.65 222.89 266.24 222.79 265.83C222.69 265.42 222.56 264.88 222.47 264.4C222.38 263.92 222.32 263.67 222.27 263.3C222.22 262.93 222.16 262.51 222.12 262.12C222.08 261.73 222.06 261.57 222.05 261.3C222 260.74 221.97 260.19 221.97 259.63C220.061 258.204 218.491 256.373 217.373 254.268C216.255 252.163 215.618 249.837 215.506 247.456C215.394 245.076 215.811 242.7 216.726 240.5C217.642 238.299 219.033 236.329 220.8 234.73L220.46 234.06C220.35 233.83 220.24 233.6 220.14 233.37C220.04 233.14 219.93 232.9 219.83 232.67C218.505 229.503 217.825 226.103 217.83 222.67C217.83 222.27 217.83 221.86 217.83 221.46C217.83 221.06 217.83 220.87 217.89 220.57V220.22C217.89 219.95 217.94 219.69 217.98 219.42C218.04 218.92 218.12 218.42 218.21 217.94C217.702 217.94 217.194 217.91 216.69 217.85C214.394 217.62 212.176 216.893 210.19 215.72L209.9 215.55C207.422 214.029 205.401 211.867 204.05 209.292C202.699 206.718 202.068 203.826 202.224 200.923C202.379 198.019 203.316 195.212 204.935 192.797C206.553 190.381 208.794 188.448 211.42 187.2C212.215 183.613 214.21 180.406 217.076 178.107C219.942 175.809 223.506 174.557 227.18 174.56C227.71 174.56 228.23 174.56 228.75 174.63C230.339 169.273 233.618 164.574 238.096 161.233C242.574 157.892 248.013 156.088 253.6 156.09C256.055 156.073 258.501 156.41 260.86 157.09C261.987 157.415 263.09 157.82 264.16 158.3C266.893 149.795 272.346 142.424 279.678 137.321C287.011 132.218 295.817 129.666 304.741 130.058C313.666 130.449 322.215 133.763 329.072 139.488C335.93 145.213 340.716 153.033 342.694 161.745C344.672 170.456 343.733 179.576 340.021 187.702C336.309 195.827 330.029 202.508 322.149 206.716C314.269 210.923 305.224 212.425 296.407 210.989C287.59 209.553 279.488 205.26 273.35 198.77C270.684 201.898 267.315 204.352 263.52 205.93C267.4 210.535 269.555 216.347 269.618 222.369C269.68 228.39 267.644 234.246 263.86 238.93C265.66 240.334 267.261 241.976 268.62 243.81C272.384 242.152 276.488 241.411 280.594 241.648C284.7 241.884 288.691 243.091 292.24 245.17C295.825 241.439 300.444 238.867 305.504 237.783C310.563 236.7 315.831 237.156 320.629 239.092C325.427 241.028 329.536 244.356 332.427 248.647C335.318 252.938 336.858 257.996 336.85 263.17L336.9 263.18Z" fill="#395DA3"/>
<path d="M206.7 212.6C206.7 212.6 209.31 217.33 218.39 217.95C218.39 217.95 215.75 223.95 220.69 234.61C220.69 234.61 215.96 239.76 215.96 243.87C215.96 243.87 209.79 244.87 206.7 243.05C206.7 243.05 218 228.85 206.7 212.6Z" fill="#A85D23"/>
<path d="M272.54 185.44C272.54 185.44 293.54 215.07 323.36 206.01C323.36 206.01 300.73 223.09 273.16 199.01C273.16 199 270.07 193.87 272.54 185.44Z" fill="#2B4271"/>
<path d="M1415.31 233.74C1415.23 233.863 1415.14 233.98 1415.04 234.09C1417.11 236.812 1418.24 240.139 1418.24 243.56C1418.24 245.895 1417.71 248.2 1416.71 250.306C1415.7 252.412 1414.23 254.265 1412.41 255.73C1414.58 257.599 1416.19 260.026 1417.07 262.746C1417.95 265.467 1418.07 268.378 1417.41 271.162C1416.76 273.946 1415.35 276.496 1413.34 278.536C1411.34 280.576 1408.81 282.026 1406.04 282.73L1405.79 282.79H1405.7C1404.75 286.258 1402.63 289.292 1399.7 291.38C1399.61 291.447 1399.52 291.507 1399.43 291.56C1396.79 293.356 1393.67 294.302 1390.48 294.27C1387.29 294.238 1384.19 293.229 1381.59 291.38C1380.54 293.476 1379.04 295.31 1377.19 296.746C1375.33 298.182 1373.18 299.184 1370.89 299.677C1368.6 300.17 1366.23 300.143 1363.95 299.596C1361.67 299.05 1359.55 297.999 1357.73 296.52C1355.92 297.989 1353.81 299.035 1351.54 299.583C1349.28 300.131 1346.92 300.167 1344.64 299.688C1342.36 299.209 1340.22 298.227 1338.37 296.814C1336.52 295.401 1335 293.592 1333.94 291.52C1331.21 293.01 1328.1 293.653 1325 293.365C1321.9 293.078 1318.96 291.874 1316.55 289.906C1314.14 287.939 1312.38 285.298 1311.48 282.321C1310.58 279.344 1310.58 276.167 1311.5 273.194C1312.41 270.221 1314.19 267.588 1316.61 265.632C1319.03 263.676 1321.97 262.486 1325.07 262.213C1328.17 261.94 1331.28 262.597 1334 264.099C1336.73 265.602 1338.94 267.883 1340.36 270.65C1343.09 269.163 1346.2 268.521 1349.29 268.806C1352.38 269.09 1355.32 270.29 1357.73 272.25C1360.38 270.091 1363.67 268.861 1367.09 268.749C1370.51 268.637 1373.87 269.649 1376.66 271.63C1377.69 269.567 1379.16 267.757 1380.98 266.331C1382.79 264.905 1384.89 263.897 1387.14 263.38C1388.02 260.227 1389.86 257.429 1392.41 255.38C1389.31 252.698 1387.4 248.906 1387.07 244.823C1386.74 240.74 1388.03 236.691 1390.66 233.55C1390 232.675 1389.43 231.734 1388.96 230.74C1387.42 231.241 1385.8 231.494 1384.18 231.49C1380.03 231.49 1376.05 229.842 1373.12 226.909C1370.19 223.976 1368.54 219.998 1368.54 215.85C1368.54 215.777 1368.54 215.703 1368.54 215.63C1363.05 218.826 1356.63 220.027 1350.36 219.031C1344.09 218.034 1338.35 214.901 1334.13 210.161C1329.9 205.421 1327.44 199.367 1327.17 193.023C1326.89 186.678 1328.82 180.434 1332.62 175.347C1336.42 170.26 1341.86 166.643 1348.02 165.108C1354.19 163.574 1360.69 164.216 1366.43 166.926C1372.18 169.636 1376.81 174.247 1379.54 179.979C1382.27 185.711 1382.94 192.212 1381.43 198.38C1381.25 199.13 1381.03 199.87 1380.79 200.59C1384.25 199.822 1387.88 200.256 1391.06 201.821C1394.25 203.386 1396.8 205.988 1398.31 209.2C1398.7 209.07 1399.08 208.97 1399.46 208.88C1400.09 208.733 1400.73 208.626 1401.38 208.56H1401.83H1402.36H1402.53H1403.1C1405.27 208.559 1407.42 209.01 1409.4 209.885C1411.39 210.76 1413.17 212.039 1414.63 213.64C1415.65 214.758 1416.5 216.018 1417.15 217.38V217.5C1418.02 219.335 1418.52 221.323 1418.62 223.35V223.44C1418.62 223.68 1418.62 223.92 1418.62 224.16C1418.63 227.089 1417.8 229.96 1416.24 232.44C1415.96 232.892 1415.65 233.326 1415.31 233.74Z" fill="#C84348"/>
<path d="M1423.5 263.7C1421.49 264.582 1419.31 265.034 1417.11 265.03C1416.88 265.03 1416.65 265.03 1416.43 265.03C1415.05 260.03 1411.06 256.84 1411.33 256.42C1419.2 244.62 1415.99 235.93 1414.58 233.19C1415.42 233.049 1416.26 232.979 1417.11 232.98C1417.66 232.98 1418.2 232.98 1418.73 233.06C1419.86 238.65 1423.65 258 1423.5 263.7Z" fill="#A85D23"/>
<path d="M1381.38 198.36C1379.69 205.252 1375.41 211.228 1369.43 215.04C1363.44 218.852 1356.22 220.206 1349.26 218.82C1355.72 218.24 1369 214.9 1381.38 198.36Z" fill="#962B35"/>
<path d="M1415.19 233.66L1415.31 233.74C1415.23 233.863 1415.14 233.98 1415.04 234.09C1416.31 235.742 1417.23 237.633 1417.74 239.65L1417.87 246.93C1417.11 250.4 1415.18 253.506 1412.41 255.73C1414.1 257.197 1415.46 259.012 1416.39 261.049C1417.31 263.087 1417.79 265.301 1417.79 267.54C1417.68 270.987 1416.48 274.31 1414.36 277.03C1412.24 279.751 1409.31 281.729 1406 282.68L1405.75 282.74C1404.89 285.449 1403.44 287.932 1401.5 290.01C1400.92 290.492 1400.31 290.936 1399.67 291.34C1399.58 291.407 1399.49 291.467 1399.4 291.52C1396.78 293.243 1393.69 294.114 1390.55 294.016C1387.42 293.917 1384.39 292.854 1381.88 290.97C1400.81 292.07 1404.38 278.35 1404.38 278.35C1416.18 272.73 1410.38 253.94 1410.38 253.94C1418.62 242.55 1411.21 233.5 1411.21 233.5C1419.03 220.5 1398.04 209.22 1398.04 209.22L1398.26 209.16C1398.65 209.03 1399.03 208.93 1399.41 208.84C1400.04 208.693 1400.68 208.586 1401.33 208.52C1401.55 208.52 1401.77 208.52 1401.99 208.52H1402.31H1402.48C1404.73 208.505 1406.96 208.94 1409.03 209.798C1411.11 210.657 1413 211.922 1414.58 213.52C1415.18 214.094 1415.74 214.716 1416.24 215.38C1416.56 215.992 1416.85 216.619 1417.1 217.26V217.38C1417.89 219.243 1418.38 221.216 1418.57 223.23V223.32C1418.57 223.56 1418.57 223.8 1418.57 224.04C1418.71 226.986 1417.87 229.896 1416.19 232.32C1415.9 232.8 1415.57 233.249 1415.19 233.66Z" fill="#962B35"/>
<path d="M942.9 517.74C942.9 517.74 900.1 572.06 953.6 628" stroke="black" stroke-width="2.31" stroke-miterlimit="10"/>
<path d="M956.89 516.09C956.89 516.09 975 549.83 1032.61 547.36" stroke="black" stroke-width="2.31" stroke-miterlimit="10"/>
<path d="M1400.68 1429.21L1496.73 1493.43L1469.81 1525.13L1420.83 1505.85L1452.03 1557.77L1278.88 1629.95L1362.68 1546.05L1328.9 1484.9L1400.68 1429.21Z" fill="#D6802B"/>
<path d="M1433.82 1450.19L1339.84 1507.55L1362.68 1546.05L1456.63 1466.58L1433.82 1450.19Z" fill="#A85D23"/>
<path d="M1484.38 1426.23L1357.88 1511.92L1331.29 1529.92C1331.29 1529.92 1067.92 1156.27 1062.99 1164.5C1058.25 1172.4 1245.08 763.16 1259.88 730.77C1260.48 729.43 1260.8 728.77 1260.8 728.77L1301.87 722.66C1288.23 728.705 1273.98 733.271 1259.37 736.28L1425.62 683.87L1361.25 975.09L1280.25 1105.27L1359.63 1230.1L1484.38 1426.23Z" fill="#030303"/>
<path d="M1436.85 1458.21L1484.08 1425.95L1360.92 1232" stroke="white" stroke-width="2.31" stroke-miterlimit="10"/>
<path d="M1500.84 756.29L1280.27 1105.25" stroke="white" stroke-width="2.31" stroke-miterlimit="10"/>
<path d="M1071.83 716L1070.35 716.73C1070.62 716.43 1070.9 716.13 1071.19 715.83L1071.83 716Z" fill="#D6802B"/>
<path d="M568.22 375.11C613.966 375.11 651.05 338.026 651.05 292.28C651.05 246.534 613.966 209.45 568.22 209.45C522.474 209.45 485.39 246.534 485.39 292.28C485.39 338.026 522.474 375.11 568.22 375.11Z" fill="#C84348"/>
<path d="M647.66 82.26L466.94 200.26L479.49 97.32L517.14 119.91C517.14 119.91 512.14 39.59 519.65 42.1C527.16 44.61 577.38 92.3 577.38 92.3L600 39.59C600 39.59 645.15 84.77 647.66 82.26Z" fill="#D6802B"/>
<path d="M682.53 94.77L901.75 209.76L778.66 384.96L696.9 327.46L773.27 220.55L668.15 199.88L682.53 94.77Z" fill="#395DA3"/>
<path d="M1020.3 1098.32L839.58 980.36L872.21 1120.91L1020.3 1098.32Z" fill="#D6802B"/>
<path d="M673.09 1005.82C699.18 1005.82 720.33 984.67 720.33 958.58C720.33 932.49 699.18 911.34 673.09 911.34C647 911.34 625.85 932.49 625.85 958.58C625.85 984.67 647 1005.82 673.09 1005.82Z" fill="#C84348"/>
<path d="M908.99 963.76L759.64 837.69L907.73 821.21L908.99 963.76Z" fill="#C84348"/>
<path d="M1070.35 307.02L939.64 270.46L895.82 401.16L1070.35 307.02Z" fill="#D6802B"/>
<path d="M913.94 1402.14L751.6 1070.27L648.12 1084.25L791.72 1426.25L913.94 1402.14Z" fill="#395DA3"/>
<path d="M1057.44 159.1L1263.78 267.35L1147.93 432.26L1070.97 378.13L1142.85 277.5L1043.91 258.05L1057.44 159.1Z" fill="#395DA3"/>
<path d="M330.65 297.31C328.658 301.626 325.518 305.312 321.573 307.963C317.627 310.615 313.029 312.13 308.28 312.344C303.531 312.558 298.815 311.461 294.647 309.175C290.48 306.888 287.021 303.5 284.65 299.38V299.32C283.962 297.965 283.383 296.557 282.92 295.11H282.73C282.51 294.52 282.32 293.91 282.15 293.3C281.154 293.413 280.152 293.469 279.15 293.47C275.11 293.471 271.125 292.527 267.515 290.712C263.905 288.898 260.77 286.263 258.36 283.02C252.967 285.41 246.92 285.886 241.22 284.37C240.47 284.18 239.73 283.94 239 283.68C234.689 282.102 230.873 279.411 227.94 275.88C227.67 275.56 227.42 275.24 227.17 274.88C226.92 274.52 226.78 274.35 226.59 274.08L226.38 273.78C225.94 273.12 225.52 272.44 225.14 271.78C225.02 271.56 224.9 271.34 224.79 271.11C224.112 269.803 223.553 268.437 223.12 267.03C222.99 266.62 222.87 266.21 222.77 265.8C222.67 265.39 222.54 264.85 222.45 264.37C222.36 263.89 222.3 263.64 222.25 263.27C222.2 262.9 222.14 262.48 222.1 262.09C222.06 261.7 222.04 261.54 222.03 261.27C221.98 260.68 221.95 260.09 221.95 259.5C220.069 258.23 218.508 256.54 217.392 254.563C216.276 252.586 215.635 250.377 215.52 248.11C215.07 238.31 220.7 234.6 220.7 234.6L220.77 234.68L220.43 234.01C220.32 233.78 220.21 233.55 220.11 233.32C220.01 233.09 219.9 232.85 219.8 232.62C218.475 229.453 217.795 226.053 217.8 222.62C217.8 222.22 217.8 221.81 217.8 221.41C217.8 221.01 217.8 220.82 217.86 220.52V220.17C217.86 219.9 217.91 219.64 217.95 219.37C218.01 218.87 218.09 218.37 218.18 217.89C217.672 217.89 217.164 217.86 216.66 217.8C214.364 217.57 212.146 216.843 210.16 215.67V215.61L209.9 215.5C207.422 213.979 205.401 211.817 204.05 209.242C202.699 206.668 202.068 203.776 202.224 200.873C202.379 197.969 203.316 195.162 204.935 192.747C206.553 190.331 208.794 188.398 211.42 187.15C212.215 183.563 214.21 180.356 217.076 178.057C219.942 175.759 223.506 174.507 227.18 174.51C227.71 174.51 228.23 174.51 228.75 174.58C230.339 169.223 233.618 164.524 238.096 161.183C242.574 157.842 248.013 156.038 253.6 156.04C256.055 156.023 258.501 156.36 260.86 157.04C254.08 158.17 239.7 162.38 237.44 177.85C237.44 177.85 221.73 175.09 218.76 189.52C218.76 189.52 205.81 192.71 217.06 210.32C217.06 210.32 238.71 215.2 232.77 229C226.83 242.8 225.77 250.65 231.07 254.47C231.07 254.47 239.56 281.63 257.18 273.36C257.18 273.36 279.67 292.25 285.18 282.27C285.24 282.37 312.44 307.1 330.65 297.31Z" fill="#2B4271"/>
<path d="M1189.18 802.84L1189.99 804.48L1032.36 882.21C1030.61 883.165 1028.69 883.757 1026.71 883.949C1024.73 884.141 1022.73 883.931 1020.83 883.329C1018.93 882.728 1017.17 881.748 1015.67 880.45C1014.16 879.152 1012.92 877.561 1012.05 875.774C1011.17 873.987 1010.66 872.041 1010.55 870.053C1010.45 868.065 1010.75 866.076 1011.43 864.206C1012.11 862.336 1013.17 860.623 1014.53 859.172C1015.89 857.72 1017.54 856.56 1019.36 855.76L1088.1 821.86C1087.43 821.5 1086.76 821.12 1086.1 820.73L1007.83 859.33C1004.35 860.857 1000.41 860.98 996.844 859.676C993.274 858.371 990.345 855.739 988.668 852.328C986.992 848.917 986.697 844.99 987.845 841.367C988.993 837.744 991.495 834.703 994.83 832.88L1063.55 799C1062.55 797.47 1061.64 795.89 1060.77 794.26C1060.39 793.547 1060.03 792.837 1059.69 792.13L987.33 827.82C983.834 829.459 979.835 829.662 976.191 828.385C972.547 827.109 969.549 824.454 967.841 820.991C966.132 817.529 965.85 813.534 967.054 809.866C968.258 806.197 970.852 803.147 974.28 801.37L1052.8 762.64C1052.8 761.18 1052.8 759.73 1052.93 758.27L974.41 796.99C972.663 797.945 970.741 798.537 968.759 798.729C966.777 798.921 964.777 798.711 962.879 798.109C960.981 797.508 959.224 796.529 957.715 795.23C956.206 793.932 954.975 792.341 954.097 790.554C953.218 788.767 952.711 786.821 952.605 784.833C952.499 782.845 952.797 780.856 953.48 778.986C954.163 777.116 955.218 775.403 956.581 773.952C957.944 772.5 959.587 771.34 961.41 770.54L1070.41 716.79L1071.89 716.06L1071.25 715.89L1020.13 702.81C1018.58 702.413 1017.11 701.714 1015.83 700.753C1014.55 699.791 1013.47 698.585 1012.65 697.205C1011.83 695.825 1011.29 694.297 1011.07 692.709C1010.84 691.121 1010.93 689.504 1011.33 687.95L1012.58 683.04C1013.39 679.901 1015.4 677.211 1018.19 675.561C1020.98 673.911 1024.31 673.436 1027.45 674.24L1104.62 694L1167.62 660.51L1231.42 780.45L1189.18 802.84Z" fill="#D6802B"/>
<path d="M1301.99 438.49L1329.07 560.03L1127.24 671.18L1195.51 815.23L1509.86 636.01L1465.03 396.54L1301.99 438.49Z" fill="#395DA3"/>
<path d="M1311.72 618.77L1311.05 602.09L1272.06 589.93L1311.72 618.77Z" fill="#2B4271"/>
<path d="M1131.26 679.78L1190.63 802.06L1191.73 804.33L1181.27 808.78L1167.66 814.56L1130.2 680.34L1131.26 679.78Z" fill="#A85D23"/>
<path d="M1193.66 757.21L1413.76 649.42L1471.03 397.09L1540.42 641.37L1195.51 815.23L1173.53 766.65L1193.66 757.21Z" fill="#2B4271"/>
</svg>
