<svg width="29" height="28" viewBox="0 0 29 28" fill="none" xmlns="http://www.w3.org/2000/svg">
<path fill-rule="evenodd" clip-rule="evenodd" d="M6.9132 24.5C9.81262 24.5 12.1632 22.1495 12.1632 19.25V16.8438H15.8819V19.25C15.8819 22.1495 18.2882 24.5 21.1319 24.5C23.9757 24.5 3.24039 24.5 6.9132 24.5Z" fill="#FCC402"/>
<path fill-rule="evenodd" clip-rule="evenodd" d="M21.1318 28H6.91309C5.94654 28 5.16309 27.2164 5.16309 26.25C5.16309 25.2835 5.94654 24.5 6.91309 24.5C7.92885 24.5 20.1448 24.5 21.1318 24.5C22.0983 24.5 22.8818 25.2835 22.8818 26.25C22.8818 27.2164 22.0983 28 21.1318 28Z" fill="#FCE202"/>
<path fill-rule="evenodd" clip-rule="evenodd" d="M27.1475 6.78125H25.835C23.7811 6.78125 22.0068 8.44616 22.0068 10.5H21.3506V6.78125C21.6546 5.28358 22.935 4.15625 24.5225 4.15625H27.1475C27.6307 4.15625 28.0225 4.54803 28.0225 5.03125V5.90625C28.0225 6.38947 27.6307 6.78125 27.1475 6.78125ZM2.20996 6.78125H0.897461C0.414242 6.78125 0.0224609 6.38947 0.0224609 5.90625V5.03125C0.0224609 4.54803 0.414242 4.15625 0.897461 4.15625H3.52246C5.10982 4.15625 6.39027 5.28358 6.69434 6.78125V10.5H6.03809C6.03809 8.44616 4.2638 6.78125 2.20996 6.78125Z" fill="#FCE202"/>
<path fill-rule="evenodd" clip-rule="evenodd" d="M5.92871 3.5H22.1162V10.7188C22.1162 15.1888 18.4925 18.8125 14.0225 18.8125C9.55241 18.8125 5.92871 15.1888 5.92871 10.7188V3.5Z" fill="url(#paint0_linear_131_46)"/>
<path fill-rule="evenodd" clip-rule="evenodd" d="M5.70996 0H22.335C22.8182 0 23.21 0.391781 23.21 0.875V1.75C23.21 2.23322 22.8182 2.625 22.335 2.625H5.70996C5.22674 2.625 4.83496 2.23322 4.83496 1.75V0.875C4.83496 0.391781 5.22674 0 5.70996 0Z" fill="#FCC402"/>
<path fill-rule="evenodd" clip-rule="evenodd" d="M17.8349 9.88194C17.2147 10.5277 16.4139 11.3995 16.4139 11.3995C16.4139 11.3995 16.5514 12.4857 16.6589 13.3594C16.7702 14.2634 16.2686 14.1808 15.7234 13.9352C14.9379 13.5812 14.0225 13.1373 14.0225 13.1373C14.0225 13.1373 13.1072 13.5812 12.3216 13.9352C11.7764 14.1808 11.2747 14.2634 11.386 13.3594C11.4937 12.4857 11.6311 11.3995 11.6311 11.3995C11.6311 11.3995 10.8303 10.5277 10.2101 9.88194C9.89602 9.55491 9.8118 9.1092 10.483 8.98353C11.3651 8.81827 12.5445 8.58738 12.5445 8.58738C12.5445 8.58738 13.0516 7.43325 13.5042 6.64838C13.7366 6.24522 14.3084 6.24522 14.5408 6.64838C14.9934 7.43325 15.5005 8.58738 15.5005 8.58738C15.5005 8.58738 16.6799 8.81827 17.562 8.98353C18.2331 9.1092 18.149 9.55491 17.8349 9.88194Z" fill="white"/>
<defs>
<linearGradient id="paint0_linear_131_46" x1="14.0225" y1="18.8125" x2="14.0225" y2="3.5" gradientUnits="userSpaceOnUse">
<stop stop-color="#FC9502"/>
<stop offset="1" stop-color="#FCBE02"/>
</linearGradient>
</defs>
</svg>
