<svg width="29" height="28" viewBox="0 0 29 28" fill="none" xmlns="http://www.w3.org/2000/svg">
<path fill-rule="evenodd" clip-rule="evenodd" d="M13.7993 1.37018L14.9202 2.7712C16.2475 4.43041 16.7367 6.06754 16.6913 7.63821C16.6472 9.16539 16.0992 10.5269 15.552 11.6506C15.3682 12.0281 15.1695 12.4074 14.9875 12.7548C14.9031 12.9159 14.8223 13.0702 14.7482 13.2142C14.5007 13.6955 14.3116 14.0938 14.1915 14.4432C14.0707 14.794 14.0483 15.0159 14.0637 15.1562C14.0753 15.262 14.1108 15.3685 14.2507 15.5084C14.4821 15.7397 14.6528 15.8047 14.7562 15.8245C14.8619 15.845 15.0025 15.8383 15.2037 15.7557C15.6535 15.5707 16.2028 15.089 16.7791 14.3663C17.3327 13.6722 17.8161 12.8781 18.1664 12.2428C18.3398 11.9282 18.4769 11.6595 18.5697 11.4711C18.616 11.377 18.6513 11.3032 18.6744 11.2543L18.6997 11.2L18.7052 11.1879L18.706 11.1863L19.3894 9.67364L20.5812 10.8291C23.2795 13.4451 24.1144 17.2227 22.3409 20.6522C20.7985 23.6347 17.6401 25.6667 14.0091 25.6667C8.8816 25.6667 4.67578 21.6034 4.67578 16.5313C4.67578 13.8592 6.1538 11.9471 7.76361 10.0673C7.97363 9.82209 8.18827 9.57496 8.40628 9.32393C9.90107 7.60281 11.555 5.69843 12.9733 2.96298L13.7993 1.37018ZM19.9905 13.7578C19.6264 14.3874 19.1528 15.1322 18.6033 15.8212C17.9584 16.6299 17.1041 17.4971 16.0912 17.9137C15.5608 18.1317 14.9552 18.2391 14.3152 18.1159C13.673 17.9922 13.0986 17.6561 12.6008 17.1583C12.0978 16.6552 11.8153 16.0608 11.7441 15.4096C11.6767 14.7926 11.8071 14.201 11.9851 13.6838C12.1636 13.1654 12.4192 12.6412 12.6732 12.1473C12.7639 11.9707 12.8535 11.7997 12.9423 11.6303C13.1152 11.3005 13.2848 10.9768 13.4541 10.6291C13.9577 9.59505 14.3294 8.59497 14.3589 7.57084C14.3747 7.02155 14.2928 6.43357 14.041 5.8016C12.7385 7.89946 11.34 9.50734 10.1564 10.8681C9.94185 11.1147 9.7344 11.3532 9.53587 11.5851C7.91305 13.48 7.00911 14.8023 7.00911 16.5313C7.00911 20.2611 10.116 23.3333 14.0091 23.3333C16.7558 23.3333 19.1212 21.7987 20.2683 19.5804C21.2736 17.6364 21.1315 15.5315 19.9905 13.7578Z" fill="#FF0000"/>
</svg>
