<svg width="29" height="28" viewBox="0 0 29 28" fill="none" xmlns="http://www.w3.org/2000/svg">
<g clip-path="url(#clip0_131_42)">
<path d="M1.55024 18.4473C1.96044 18.4356 2.25339 18.1192 2.26514 17.6973C2.39404 12.5996 5.01904 8.82615 9.00339 7.3496L11.7339 14.8496C11.7573 14.9082 11.7456 14.9551 11.687 14.9785C11.6401 15.002 11.6049 14.9785 11.5698 14.9434L10.187 13.4434C9.28464 12.4707 8.13619 12.4004 7.24559 13.1504C6.23779 14.0059 6.22604 15.2832 7.21044 16.4903L11.1362 21.2364C14.101 24.8223 17.5815 25.9356 21.4721 24.5176C26.1245 22.8301 28.105 18.5645 26.2299 13.4082L25.351 11.0059C24.4371 8.4629 22.6909 7.41991 20.6401 8.13476C20.0893 7.41991 19.2456 7.17385 18.3315 7.50195C18.0151 7.61915 17.7104 7.79495 17.4174 8.0176C16.8198 7.24415 15.894 6.9629 14.9331 7.30275C14.6752 7.3965 14.4291 7.5371 14.1948 7.70115L12.8589 4.04495C12.3549 2.65041 11.0893 2.06446 9.78854 2.53321C8.47604 3.01371 7.89009 4.2676 8.39404 5.6621L8.48779 5.9199C3.95259 7.61915 0.800293 11.9903 0.800293 17.6739C0.800293 18.0957 1.15184 18.459 1.55024 18.4473ZM20.9682 22.9824C17.8979 24.1074 15.0151 23.5332 12.3081 20.2637L8.38229 15.541C7.96044 15.0489 7.96044 14.5684 8.33544 14.2403C8.68699 13.9239 9.16744 14.0293 9.55414 14.4278L12.2612 17.2285C12.7182 17.6973 13.1167 17.7442 13.5034 17.6035C13.9604 17.4395 14.1596 16.9473 13.9721 16.4434L9.82369 5.0293C9.64794 4.56056 9.85889 4.11525 10.3041 3.95115C10.7612 3.7871 11.1831 4.00975 11.3589 4.4785L14.3237 12.6231C14.4643 13.0098 14.8979 13.1856 15.2846 13.045C15.6596 12.9043 15.8589 12.4942 15.7182 12.1192L14.6518 9.17775C14.8159 9.0254 15.0385 8.87306 15.2612 8.79101C15.812 8.59181 16.269 8.8379 16.4799 9.4121L17.4174 11.9785C17.5581 12.377 17.9917 12.5293 18.3667 12.3887C18.7299 12.2598 18.9643 11.8731 18.812 11.4629L18.0502 9.3887C18.2143 9.2246 18.437 9.07225 18.6596 8.99025C19.2104 8.791 19.6674 9.0371 19.8784 9.61135L20.4995 11.3223C20.6518 11.7324 21.0854 11.8848 21.4604 11.7442C21.8237 11.6153 22.0463 11.2168 21.9057 10.8184L21.437 9.55275C22.4213 9.20115 23.3472 9.99805 23.9799 11.7559L24.7181 13.7598C26.3237 18.1895 24.8588 21.5645 20.9682 22.9824Z" fill="#3E86F5"/>
</g>
<defs>
<clipPath id="clip0_131_42">
<rect width="28" height="28" fill="white" transform="translate(0.452637)"/>
</clipPath>
</defs>
</svg>
