<svg width="29" height="28" viewBox="0 0 29 28" fill="none" xmlns="http://www.w3.org/2000/svg">
<path d="M21.0327 25.424C20.6781 25.4053 20.3421 25.312 20.0247 25.144L15.0967 22.596C14.9847 22.5213 14.8167 22.484 14.5927 22.484C14.3687 22.484 14.2007 22.5213 14.0887 22.596L9.16074 25.144C8.80607 25.3307 8.46073 25.4193 8.12473 25.41C7.78873 25.4007 7.4854 25.298 7.21473 25.102C6.94407 24.906 6.75273 24.6493 6.64073 24.332C6.52873 24.0147 6.50073 23.6693 6.55673 23.296L7.45274 18.088C7.49007 17.864 7.46673 17.6167 7.38273 17.346C7.29873 17.0753 7.17274 16.8653 7.00474 16.716L3.19674 13.048C2.91674 12.768 2.73007 12.4693 2.63674 12.152C2.5434 11.8347 2.54807 11.5173 2.65074 11.2C2.7534 10.8827 2.94007 10.6213 3.21074 10.416C3.4814 10.2107 3.81273 10.08 4.20474 10.024L9.46873 9.26799C9.69273 9.23066 9.91673 9.12799 10.1407 8.95999C10.3647 8.79199 10.5327 8.60532 10.6447 8.39999L12.9967 3.69599C13.1647 3.34132 13.3887 3.06599 13.6687 2.86999C13.9487 2.67399 14.2567 2.57599 14.5927 2.57599C14.9287 2.57599 15.2367 2.67399 15.5167 2.86999C15.7967 3.06599 16.0207 3.34132 16.1887 3.69599L18.5407 8.39999C18.6527 8.60532 18.8207 8.79199 19.0447 8.95999C19.2687 9.12799 19.4927 9.23066 19.7167 9.26799L24.9807 10.024C25.3727 10.08 25.7041 10.2107 25.9747 10.416C26.2454 10.6213 26.4321 10.8827 26.5347 11.2C26.6374 11.5173 26.6421 11.8347 26.5487 12.152C26.4554 12.4693 26.2687 12.768 25.9887 13.048L22.1807 16.716C22.0127 16.884 21.8867 17.0987 21.8027 17.36C21.7187 17.6213 21.6954 17.864 21.7327 18.088L22.6287 23.296C22.6847 23.6693 22.6567 24.0147 22.5447 24.332C22.4327 24.6493 22.2367 24.9107 21.9567 25.116C21.6767 25.3213 21.3687 25.424 21.0327 25.424ZM14.5927 19.796C14.8167 19.796 15.2741 19.9827 15.9647 20.356L19.1847 22.036C19.3714 22.1293 19.5441 22.12 19.7027 22.008C19.8614 21.896 19.9221 21.7373 19.8847 21.532L19.0727 16.772C19.0354 16.5667 19.0914 16.3893 19.2407 16.24L22.7407 12.852C22.8714 12.7213 22.9087 12.5627 22.8527 12.376C22.7967 12.1893 22.6661 12.0867 22.4607 12.068L17.8687 11.396C17.7194 11.3773 17.5654 11.312 17.4067 11.2C17.2481 11.088 17.1407 10.9573 17.0847 10.808L15.0127 6.69199C14.9381 6.52399 14.7981 6.43999 14.5927 6.43999C14.3874 6.43999 14.2474 6.52399 14.1727 6.69199L12.1007 10.808C12.0447 10.9573 11.9374 11.088 11.7787 11.2C11.6201 11.312 11.4661 11.3773 11.3167 11.396L6.72473 12.04C6.5194 12.0773 6.38874 12.1893 6.33274 12.376C6.27674 12.5627 6.31407 12.7213 6.44473 12.852L9.77674 16.072C9.88874 16.184 9.97274 16.3287 10.0287 16.506C10.0847 16.6833 10.1034 16.8467 10.0847 16.996L9.30073 21.532C9.2634 21.7187 9.32407 21.8727 9.48273 21.994C9.6414 22.1153 9.81407 22.1293 10.0007 22.036L13.2487 20.328C13.9207 19.9733 14.3687 19.796 14.5927 19.796Z" fill="#FCE202"/>
</svg>
