<svg width="28" height="28" viewBox="0 0 28 28" fill="none" xmlns="http://www.w3.org/2000/svg">
<g clip-path="url(#clip0_111_282)">
<path fill-rule="evenodd" clip-rule="evenodd" d="M6.89061 24.5C9.79004 24.5 12.1406 22.1495 12.1406 19.25V16.8438H15.8594V19.25C15.8594 22.1495 18.2656 24.5 21.1094 24.5C23.9531 24.5 3.2178 24.5 6.89061 24.5Z" fill="#FCC402"/>
<path fill-rule="evenodd" clip-rule="evenodd" d="M21.1094 28H6.89062C5.92408 28 5.14062 27.2164 5.14062 26.25C5.14062 25.2835 5.92408 24.5 6.89062 24.5C7.90639 24.5 20.1224 24.5 21.1094 24.5C22.0758 24.5 22.8594 25.2835 22.8594 26.25C22.8594 27.2164 22.0758 28 21.1094 28Z" fill="#FCE202"/>
<path fill-rule="evenodd" clip-rule="evenodd" d="M27.125 6.78125H25.8125C23.7587 6.78125 21.9844 8.44616 21.9844 10.5H21.3281V6.78125C21.6322 5.28358 22.9125 4.15625 24.5 4.15625H27.125C27.6082 4.15625 28 4.54803 28 5.03125V5.90625C28 6.38947 27.6082 6.78125 27.125 6.78125ZM2.1875 6.78125H0.875C0.391781 6.78125 0 6.38947 0 5.90625V5.03125C0 4.54803 0.391781 4.15625 0.875 4.15625H3.5C5.08736 4.15625 6.36781 5.28358 6.67188 6.78125V10.5H6.01562C6.01562 8.44616 4.24134 6.78125 2.1875 6.78125Z" fill="#FCE202"/>
<path fill-rule="evenodd" clip-rule="evenodd" d="M5.90625 3.5H22.0938V10.7188C22.0938 15.1888 18.47 18.8125 14 18.8125C9.52995 18.8125 5.90625 15.1888 5.90625 10.7188V3.5Z" fill="url(#paint0_linear_111_282)"/>
<path fill-rule="evenodd" clip-rule="evenodd" d="M5.6875 0H22.3125C22.7957 0 23.1875 0.391781 23.1875 0.875V1.75C23.1875 2.23322 22.7957 2.625 22.3125 2.625H5.6875C5.20428 2.625 4.8125 2.23322 4.8125 1.75V0.875C4.8125 0.391781 5.20428 0 5.6875 0Z" fill="#FCC402"/>
<path fill-rule="evenodd" clip-rule="evenodd" d="M17.8124 9.88194C17.1922 10.5277 16.3914 11.3995 16.3914 11.3995C16.3914 11.3995 16.5289 12.4857 16.6364 13.3594C16.7477 14.2634 16.2461 14.1808 15.7009 13.9352C14.9154 13.5812 14 13.1373 14 13.1373C14 13.1373 13.0846 13.5812 12.2991 13.9352C11.7539 14.1808 11.2522 14.2634 11.3635 13.3594C11.4711 12.4857 11.6086 11.3995 11.6086 11.3995C11.6086 11.3995 10.8078 10.5277 10.1876 9.88194C9.8735 9.55491 9.78928 9.1092 10.4605 8.98353C11.3426 8.81827 12.522 8.58738 12.522 8.58738C12.522 8.58738 13.0291 7.43325 13.4817 6.64838C13.7141 6.24522 14.2859 6.24522 14.5183 6.64838C14.9709 7.43325 15.478 8.58738 15.478 8.58738C15.478 8.58738 16.6574 8.81827 17.5395 8.98353C18.2106 9.1092 18.1265 9.55491 17.8124 9.88194Z" fill="white"/>
</g>
<defs>
<linearGradient id="paint0_linear_111_282" x1="14" y1="18.8125" x2="14" y2="3.5" gradientUnits="userSpaceOnUse">
<stop stop-color="#FC9502"/>
<stop offset="1" stop-color="#FCBE02"/>
</linearGradient>
<clipPath id="clip0_111_282">
<rect width="28" height="28" fill="white"/>
</clipPath>
</defs>
</svg>
