<svg width="28" height="28" viewBox="0 0 28 28" fill="none" xmlns="http://www.w3.org/2000/svg">
<g clip-path="url(#clip0_111_313)">
<path d="M19.1397 0.0010376H8.86024C8.20359 0.0010376 7.6712 0.533363 7.6712 1.19008V11.4695C7.6712 12.1262 8.20359 12.6586 8.86024 12.6586H19.1397C19.7964 12.6586 20.3287 12.1262 20.3287 11.4695V1.19008C20.3287 0.533363 19.7964 0.0010376 19.1397 0.0010376Z" fill="#F6C358"/>
<path d="M19.1397 0.0010376H8.86024C8.20359 0.0010376 7.6712 0.533363 7.6712 1.19008V10.4513C7.6712 11.108 8.20359 11.6404 8.86024 11.6404H19.1397C19.7964 11.6404 20.3287 11.108 20.3287 10.4513V1.19008C20.3287 0.533363 19.7964 0.0010376 19.1397 0.0010376Z" fill="#FCD462"/>
<path d="M11.4685 15.3414H1.18904C0.532326 15.3414 0 15.8738 0 16.5305V26.8099C0 27.4666 0.532326 27.999 1.18904 27.999H11.4685C12.1252 27.999 12.6575 27.4666 12.6575 26.8099V16.5305C12.6575 15.8738 12.1251 15.3414 11.4685 15.3414Z" fill="#3EA69B"/>
<path d="M11.4685 15.3414H1.18904C0.532326 15.3414 0 15.8738 0 16.5305V25.7917C0 26.4484 0.532326 26.9808 1.18904 26.9808H11.4685C12.1252 26.9808 12.6575 26.4484 12.6575 25.7917V16.5305C12.6575 15.8738 12.1251 15.3414 11.4685 15.3414Z" fill="#44C4A1"/>
<path d="M26.811 15.3414H16.5315C15.8748 15.3414 15.3425 15.8738 15.3425 16.5305V26.8099C15.3425 27.4666 15.8748 27.999 16.5315 27.999H26.811C27.4677 27.999 28 27.4666 28 26.8099V16.5305C28 15.8738 27.4676 15.3414 26.811 15.3414Z" fill="#D15241"/>
<path d="M26.811 15.3414H16.5315C15.8748 15.3414 15.3425 15.8738 15.3425 16.5305V25.7917C15.3425 26.4484 15.8748 26.9808 16.5315 26.9808H26.811C27.4677 26.9808 28 26.4484 28 25.7917V16.5305C28 15.8738 27.4676 15.3414 26.811 15.3414Z" fill="#E56353"/>
<path d="M16.1743 9.92324L15.5058 8.37107H12.4934L11.8249 9.92329H10.1187L13.2239 2.73633H14.7761L17.8813 9.92324H16.1743ZM14.0046 4.87509L13.1001 6.96198H14.8992L14.0046 4.87509Z" fill="#DC8744"/>
<path d="M6.60651 25.2637H3.46027V18.0767H6.25677C6.74372 18.0767 7.16295 18.1344 7.51604 18.2516C7.86914 18.368 8.13525 18.5252 8.31345 18.7244C8.63565 19.0942 8.79629 19.5127 8.79629 19.9787C8.79629 20.541 8.61467 20.9594 8.25154 21.233C8.12858 21.3292 8.04238 21.3895 7.99461 21.4129C7.94604 21.4372 7.86076 21.4765 7.73774 21.5309C8.18285 21.6271 8.53765 21.8279 8.8012 22.1325C9.06565 22.4379 9.19699 22.8162 9.19699 23.2689C9.19699 23.7692 9.02631 24.2119 8.68325 24.5951C8.28591 25.0411 7.59391 25.2637 6.60651 25.2637ZM5.06437 20.9861H5.82495C6.27017 20.9861 6.60149 20.9384 6.81737 20.8422C7.03326 20.7468 7.14123 20.5393 7.14123 20.2205C7.14123 19.9017 7.04164 19.6908 6.84331 19.5879C6.64419 19.4851 6.3087 19.4339 5.83504 19.4339H5.06437V20.9861ZM5.06437 23.9064H6.16471C6.62327 23.9064 6.96798 23.8495 7.19726 23.7366C7.4274 23.6236 7.54204 23.4011 7.54204 23.0688C7.54204 22.7359 7.42067 22.5165 7.17714 22.4103C6.93372 22.3041 6.5446 22.2513 6.00993 22.2513H5.06437V23.9064Z" fill="white"/>
<path d="M22.036 23.8859C22.8242 23.8859 23.4686 23.5746 23.9689 22.9504L24.9973 24.0097C24.1814 24.9285 23.22 25.387 22.113 25.387C21.006 25.387 20.0947 25.0381 19.3785 24.3385C18.6622 23.6391 18.3041 22.7571 18.3041 21.6911C18.3041 20.625 18.6689 19.7356 19.3986 19.0227C20.1291 18.3097 21.0219 17.9532 22.0771 17.9532C23.2561 17.9532 24.2434 18.4026 25.0384 19.3004L24.041 20.4309C23.5338 19.8008 22.903 19.4854 22.149 19.4854C21.5457 19.4854 21.0303 19.6829 20.6019 20.077C20.1735 20.4711 19.9593 21.0015 19.9593 21.6702C19.9593 22.3388 20.1618 22.8751 20.5659 23.2792C20.9699 23.6843 21.4603 23.8859 22.036 23.8859Z" fill="white"/>
</g>
<defs>
<clipPath id="clip0_111_313">
<rect width="28" height="28" fill="white"/>
</clipPath>
</defs>
</svg>
