<svg width="28" height="28" viewBox="0 0 28 28" fill="none" xmlns="http://www.w3.org/2000/svg">
<mask id="mask0_111_281" style="mask-type:luminance" maskUnits="userSpaceOnUse" x="0" y="0" width="28" height="28">
<path d="M28 0H0V28H28V0Z" fill="white"/>
</mask>
<g mask="url(#mask0_111_281)">
<path d="M19.8333 11.6667C21.7663 11.6667 23.3333 10.0997 23.3333 8.16669C23.3333 6.23369 21.7663 4.66669 19.8333 4.66669C17.9003 4.66669 16.3333 6.23369 16.3333 8.16669C16.3333 10.0997 17.9003 11.6667 19.8333 11.6667Z" stroke="#292929" stroke-width="2" stroke-linecap="round" stroke-linejoin="round"/>
<path d="M8.16669 23.3333C10.0997 23.3333 11.6667 21.7663 11.6667 19.8333C11.6667 17.9003 10.0997 16.3333 8.16669 16.3333C6.23369 16.3333 4.66669 17.9003 4.66669 19.8333C4.66669 21.7663 6.23369 23.3333 8.16669 23.3333Z" stroke="#292929" stroke-width="2" stroke-linecap="round" stroke-linejoin="round"/>
<path d="M16.3333 16.3333H23.3333V22.1666C23.3333 22.811 22.811 23.3333 22.1666 23.3333H17.5C16.8556 23.3333 16.3333 22.811 16.3333 22.1666V16.3333Z" stroke="#292929" stroke-width="2" stroke-linecap="round" stroke-linejoin="round"/>
<path d="M4.66669 4.66669H11.6667V10.5C11.6667 11.1443 11.1443 11.6667 10.5 11.6667H5.83335C5.18903 11.6667 4.66669 11.1443 4.66669 10.5V4.66669Z" stroke="#292929" stroke-width="2" stroke-linecap="round" stroke-linejoin="round"/>
</g>
</svg>
